# xmcd
#
# Track frame offsets:
# 183
# 19700
# 48553
# 68628
# 93425
# 111560
# 141625
# 175113
# 198833
# 221980
# 241780
# 263495
# 290878
# 310770
#
# Disc length: 4438 seconds
#
#
# Revision: 0
# Processed by: cddbd v1.5PL3 Copyright (c) Steve Scherf et al.
# Submitted via: FreeRIP 2.70 
#
DISCID=d411540e
DTITLE=Various Artist - This Is Blues
DYEAR=1900
DGENRE=Blues
TTITLE0=I shoulda did what my mama told me
TTITLE1=Ever been lonesome
TTITLE2=Scared of you
TTITLE3=you got to help me
TTITLE4=grease me
TTITLE5=things have changed
TTITLE6=good lovings
TTITLE7=no educated woman
TTITLE8=by one was a gambler
TTITLE9=rambling woman
TTITLE10=G.M. blues
TTITLE11=if you got to love somebody
TTITLE12=two old maids
TTITLE13=going back to Louisiana
EXTD=
EXTT0=
EXTT1=
EXTT2=
EXTT3=
EXTT4=
EXTT5=
EXTT6=
EXTT7=
EXTT8=
EXTT9=
EXTT10=
EXTT11=
EXTT12=
EXTT13=
PLAYORDER=
